<svg width="113" height="38" viewBox="0 0 113 38" fill="none" xmlns="http://www.w3.org/2000/svg">
<path d="M6.24 29.6L0 9.2H5.28L8.96 24.52H8.6L13.12 9.2H17.72L22.32 24.52H21.92L25.56 9.2H30.72L24.48 29.6H19.76L15.16 14.44H15.56L10.96 29.6H6.24Z" fill="#DC2626"/>
<path d="M39.6722 30C37.7255 30 36.1389 29.5467 34.9122 28.64C33.7122 27.7067 32.9655 26.4267 32.6722 24.8L33.0722 24.76V37.8H28.0322V9.2H32.9522V13.8L32.5522 13.72C32.9255 12.2 33.7789 11 35.1122 10.12C36.4455 9.24 38.0722 8.8 39.9922 8.8C41.8055 8.8 43.3789 9.24 44.7122 10.12C46.0722 10.9733 47.1255 12.1867 47.8722 13.76C48.6189 15.3333 48.9922 17.1867 48.9922 19.32C48.9922 21.48 48.6055 23.36 47.8322 24.96C47.0589 26.56 45.9789 27.8 44.5922 28.68C43.2055 29.56 41.5655 30 39.6722 30ZM38.3922 25.84C40.0189 25.84 41.3122 25.28 42.2722 24.16C43.2322 23.0133 43.7122 21.4133 43.7122 19.36C43.7122 17.3067 43.2189 15.72 42.2322 14.6C41.2722 13.48 39.9789 12.92 38.3522 12.92C36.7522 12.92 35.4589 13.4933 34.4722 14.64C33.4855 15.76 32.9922 17.3467 32.9922 19.4C32.9922 21.4533 33.4855 23.04 34.4722 24.16C35.4589 25.28 36.7655 25.84 38.3922 25.84Z" fill="#DC2626"/>
<path d="M55.5528 5.4C54.9928 5.4 54.5128 5.2 54.1128 4.8C53.7395 4.4 53.5528 3.89333 53.5528 3.28C53.5528 2.66666 53.7395 2.17333 54.1128 1.8C54.5128 1.4 54.9928 1.2 55.5528 1.2C56.1128 1.2 56.5795 1.4 56.9528 1.8C57.3261 2.17333 57.5128 2.66666 57.5128 3.28C57.5128 3.89333 57.3261 4.4 56.9528 4.8C56.5795 5.2 56.1128 5.4 55.5528 5.4ZM52.1928 29.6C51.7928 29.6 51.5928 29.4533 51.5928 29.16C51.5928 28.92 51.7661 28.76 52.1128 28.68L52.5928 28.6C53.2595 28.4933 53.6861 28.3333 53.8728 28.12C54.0595 27.88 54.1528 27.48 54.1528 26.92V13.48C54.1528 13 54.0728 12.68 53.9128 12.52C53.7795 12.3333 53.5261 12.2133 53.1528 12.16L52.3128 12.04C51.9661 12.0133 51.7928 11.8667 51.7928 11.6C51.7928 11.3867 52.0061 11.24 52.4328 11.16C53.2595 11.0267 53.9261 10.8133 54.4328 10.52C54.9395 10.2267 55.4328 9.86667 55.9128 9.44C56.1528 9.2 56.3528 9.08 56.5128 9.08C56.7528 9.08 56.8728 9.24 56.8728 9.56V26.92C56.8728 27.48 56.9528 27.88 57.1128 28.12C57.2728 28.36 57.5795 28.5067 58.0328 28.56L59.0328 28.68C59.3261 28.7333 59.4728 28.88 59.4728 29.12C59.4728 29.44 59.2728 29.6 58.8728 29.6H52.1928Z" fill="white"/>
<path d="M61.0991 29.6C60.6991 29.6 60.4991 29.4533 60.4991 29.16C60.4991 28.92 60.6724 28.76 61.0191 28.68L61.4991 28.6C62.0591 28.4933 62.4191 28.3333 62.5791 28.12C62.7657 27.88 62.8591 27.48 62.8591 26.92V13.48C62.8591 13 62.7791 12.68 62.6191 12.52C62.4857 12.3333 62.2324 12.2133 61.8591 12.16L61.0191 12.04C60.6724 12.0133 60.4991 11.8667 60.4991 11.6C60.4991 11.3867 60.7124 11.24 61.1391 11.16C61.9657 11.0267 62.5924 10.8133 63.0191 10.52C63.4724 10.2267 63.9391 9.86667 64.4191 9.44C64.6591 9.2 64.8591 9.08 65.0191 9.08C65.2591 9.08 65.3791 9.24 65.3791 9.56V11.36C65.3791 11.6 65.4591 11.76 65.6191 11.84C65.8057 11.8933 66.0057 11.8133 66.2191 11.6C67.2857 10.5867 68.2191 9.89333 69.0191 9.52C69.8457 9.14667 70.7124 8.96 71.6191 8.96C72.8191 8.96 73.7791 9.38667 74.4991 10.24C75.2191 11.0667 75.5791 12.2933 75.5791 13.92V26.92C75.5791 27.48 75.6591 27.88 75.8191 28.12C76.0057 28.3333 76.3791 28.48 76.9391 28.56L77.8191 28.68C78.1124 28.7333 78.2591 28.8933 78.2591 29.16C78.2591 29.4533 78.0991 29.6 77.7791 29.6H71.0591C70.6857 29.6 70.4991 29.4533 70.4991 29.16C70.4991 28.8933 70.6457 28.7333 70.9391 28.68L71.4991 28.6C72.0591 28.52 72.4191 28.36 72.5791 28.12C72.7657 27.88 72.8591 27.48 72.8591 26.92V14.36C72.8591 13.0533 72.6191 12.1333 72.1391 11.6C71.6591 11.0667 70.9791 10.8 70.0991 10.8C69.2457 10.8 68.4724 11.0533 67.7791 11.56C67.1124 12.04 66.5791 12.6933 66.1791 13.52C65.7791 14.32 65.5791 15.2133 65.5791 16.2V26.92C65.5791 27.48 65.6591 27.88 65.8191 28.12C66.0057 28.36 66.3791 28.5067 66.9391 28.56L68.0191 28.68C68.3124 28.7333 68.4591 28.88 68.4591 29.12C68.4591 29.44 68.2591 29.6 67.8591 29.6H61.0991Z" fill="white"/>
<path d="M85.9281 29.96C84.7548 29.96 83.7015 29.56 82.7681 28.76C81.8615 27.9333 81.1548 26.8 80.6481 25.36C80.1415 23.8933 79.8881 22.2 79.8881 20.28C79.8881 18.04 80.2348 16.08 80.9281 14.4C81.6215 12.6933 82.5815 11.36 83.8081 10.4C85.0348 9.44 86.4215 8.96 87.9681 8.96C88.3415 8.96 88.7148 9 89.0881 9.08C89.4615 9.13333 89.8215 9.24 90.1681 9.4C90.5948 9.61333 90.8081 9.52 90.8081 9.12V4C90.8081 3.52 90.7281 3.18667 90.5681 3C90.4348 2.81333 90.1815 2.70667 89.8081 2.68L88.7681 2.56C88.4748 2.50667 88.3281 2.34667 88.3281 2.08C88.3281 1.81333 88.4748 1.65333 88.7681 1.6C89.6215 1.44 90.3015 1.25333 90.8081 1.04C91.3415 0.826665 91.7815 0.613332 92.1281 0.4C92.5548 0.133333 92.8748 0 93.0881 0C93.3815 0 93.5281 0.213333 93.5281 0.639999V25.8C93.5281 26.92 93.8081 27.48 94.3681 27.48C94.7148 27.48 95.0348 27.2533 95.3281 26.8C95.6215 26.32 95.7681 25.52 95.7681 24.4C95.7681 23.9733 95.9415 23.76 96.2881 23.76C96.6081 23.76 96.7681 23.9867 96.7681 24.44C96.7681 26.3867 96.4348 27.8 95.7681 28.68C95.1015 29.5333 94.3415 29.96 93.4881 29.96C92.7148 29.96 92.1281 29.7067 91.7281 29.2C91.3281 28.6667 91.0615 28.04 90.9281 27.32C90.9015 27.1067 90.8081 27 90.6481 27C90.4881 26.9733 90.3415 27.0667 90.2081 27.28C89.4615 28.32 88.7815 29.0267 88.1681 29.4C87.5548 29.7733 86.8081 29.96 85.9281 29.96ZM86.8081 28.12C87.5015 28.12 88.1415 27.8933 88.7281 27.44C89.3415 26.96 89.8348 26.32 90.2081 25.52C90.6081 24.72 90.8081 23.8267 90.8081 22.84V13.84C90.8081 12.64 90.5281 11.6933 89.9681 11C89.4348 10.3067 88.7281 9.96 87.8481 9.96C86.3548 9.96 85.1415 10.84 84.2081 12.6C83.3015 14.3333 82.8481 16.7067 82.8481 19.72C82.8481 22.4667 83.1948 24.56 83.8881 26C84.6081 27.4133 85.5815 28.12 86.8081 28.12Z" fill="white"/>
<path d="M99.8988 37.8C99.1788 37.8 98.6054 37.5467 98.1787 37.04C97.7521 36.56 97.5387 36 97.5387 35.36C97.5387 34.8533 97.6854 34.4267 97.9788 34.08C98.2721 33.7333 98.6721 33.56 99.1787 33.56C99.6054 33.56 99.9121 33.6533 100.099 33.84C100.285 34.0267 100.419 34.24 100.499 34.48C100.579 34.72 100.659 34.9333 100.739 35.12C100.819 35.3067 100.979 35.4 101.219 35.4C101.512 35.4 101.779 35.1867 102.019 34.76C102.259 34.36 102.592 33.4933 103.019 32.16C103.285 31.36 103.445 30.6667 103.499 30.08C103.579 29.4933 103.565 28.8667 103.459 28.2C103.379 27.5333 103.179 26.72 102.859 25.76L98.4987 11.88C98.3121 11.24 98.1254 10.8267 97.9388 10.64C97.7788 10.4533 97.5121 10.32 97.1387 10.24L96.5387 10.12C96.1921 10.04 96.0188 9.86667 96.0188 9.6C96.0188 9.33333 96.2054 9.2 96.5788 9.2H103.179C103.552 9.2 103.739 9.33333 103.739 9.6C103.739 9.89333 103.565 10.0667 103.219 10.12L102.579 10.2C101.939 10.28 101.525 10.44 101.339 10.68C101.179 10.8933 101.192 11.2933 101.379 11.88L104.899 23.6C104.979 23.8667 105.099 24 105.259 24C105.445 24 105.579 23.8667 105.659 23.6L109.059 12.6C109.272 11.88 109.325 11.3467 109.219 11C109.139 10.6267 108.765 10.3867 108.099 10.28L107.259 10.12C106.912 10.04 106.739 9.86667 106.739 9.6C106.739 9.33333 106.925 9.2 107.299 9.2H112.379C112.752 9.2 112.939 9.34667 112.939 9.64C112.939 9.90667 112.779 10.0933 112.459 10.2L112.099 10.32C111.699 10.4533 111.365 10.6933 111.099 11.04C110.832 11.3867 110.552 11.9867 110.259 12.84L104.299 31.44C103.712 33.3067 103.179 34.6933 102.699 35.6C102.245 36.5067 101.805 37.0933 101.379 37.36C100.952 37.6533 100.459 37.8 99.8988 37.8Z" fill="white"/>
</svg>
